<svg width="123" height="62" viewBox="0 0 123 62" fill="none" xmlns="http://www.w3.org/2000/svg">
<g id="PedroDutra.">
<path id="Vector" d="M118.757 61.596C117.629 61.596 116.753 61.284 116.129 60.66C115.505 60.036 115.193 59.148 115.193 57.996C115.193 56.94 115.517 56.076 116.165 55.404C116.837 54.732 117.701 54.396 118.757 54.396C119.885 54.396 120.761 54.708 121.385 55.332C122.009 55.956 122.321 56.844 122.321 57.996C122.321 59.052 121.985 59.916 121.313 60.588C120.665 61.26 119.813 61.596 118.757 61.596Z" fill="#DBDDFF"/>
<g id="Dutra">
<path id="Vector_2" d="M98.7152 61.524C97.1072 61.524 95.6792 61.104 94.4312 60.264C93.1832 59.4 92.1992 58.224 91.4792 56.736C90.7592 55.224 90.3992 53.496 90.3992 51.552C90.3992 49.584 90.7472 47.856 91.4432 46.368C92.1632 44.856 93.1472 43.68 94.3952 42.84C95.6672 41.976 97.1312 41.544 98.7872 41.544C99.6512 41.544 100.443 41.664 101.163 41.904C101.883 42.144 102.519 42.48 103.071 42.912C103.623 43.344 104.103 43.848 104.511 44.424C104.919 44.976 105.267 45.576 105.555 46.224L104.079 46.188V41.94H111.243V61.2H103.899V56.484L105.519 56.628C105.279 57.324 104.943 57.972 104.511 58.572C104.103 59.172 103.611 59.688 103.035 60.12C102.459 60.552 101.811 60.9 101.091 61.164C100.371 61.404 99.5792 61.524 98.7152 61.524ZM100.803 55.584C101.499 55.584 102.087 55.428 102.567 55.116C103.071 54.804 103.443 54.348 103.683 53.748C103.947 53.148 104.079 52.416 104.079 51.552C104.079 50.688 103.947 49.956 103.683 49.356C103.443 48.732 103.071 48.264 102.567 47.952C102.087 47.64 101.499 47.484 100.803 47.484C100.107 47.484 99.5192 47.64 99.0392 47.952C98.5592 48.264 98.1872 48.732 97.9232 49.356C97.6832 49.956 97.5632 50.688 97.5632 51.552C97.5632 52.416 97.6832 53.148 97.9232 53.748C98.1872 54.348 98.5592 54.804 99.0392 55.116C99.5192 55.428 100.107 55.584 100.803 55.584Z" fill="#DBDDFF"/>
<path id="Vector_3" d="M74.8939 61.2V41.94H81.6619L82.0939 48.348L80.4739 47.34C80.7859 46.236 81.2779 45.252 81.9499 44.388C82.6219 43.5 83.4259 42.804 84.3619 42.3C85.3219 41.796 86.3419 41.544 87.4219 41.544C87.8539 41.544 88.2619 41.58 88.6459 41.652C89.0299 41.7 89.4019 41.772 89.7619 41.868L87.7459 49.968C87.5059 49.8 87.1219 49.644 86.5939 49.5C86.0899 49.356 85.5379 49.284 84.9379 49.284C84.5059 49.284 84.1099 49.356 83.7499 49.5C83.4139 49.62 83.1259 49.812 82.8859 50.076C82.6699 50.34 82.5019 50.652 82.3819 51.012C82.2619 51.372 82.2019 51.792 82.2019 52.272V61.2H74.8939Z" fill="#DBDDFF"/>
<path id="Vector_4" d="M61.1714 61.2V37.08H68.4794V61.2H61.1714ZM58.1834 48.06V41.94H71.6474V48.06H58.1834Z" fill="#DBDDFF"/>
<path id="Vector_5" d="M42.5254 61.596C41.0614 61.596 39.8254 61.296 38.8174 60.696C37.8094 60.096 37.0414 59.22 36.5134 58.068C35.9854 56.892 35.7214 55.476 35.7214 53.82V41.94H43.0294V53.208C43.0294 53.736 43.1134 54.18 43.2814 54.54C43.4734 54.9 43.7374 55.176 44.0734 55.368C44.4094 55.56 44.8174 55.656 45.2974 55.656C45.6574 55.656 45.9814 55.608 46.2694 55.512C46.5814 55.392 46.8454 55.224 47.0614 55.008C47.2774 54.792 47.4454 54.552 47.5654 54.288C47.6854 54 47.7454 53.7 47.7454 53.388V41.94H55.0534V61.2H48.3574L47.9254 57.312L49.2934 56.88C49.0294 57.792 48.5614 58.608 47.8894 59.328C47.2414 60.024 46.4494 60.576 45.5134 60.984C44.5774 61.392 43.5814 61.596 42.5254 61.596Z" fill="#DBDDFF"/>
<path id="Vector_6" d="M8 61.2V36H19.088C20.984 36 22.724 36.312 24.308 36.936C25.892 37.56 27.272 38.436 28.448 39.564C29.624 40.668 30.524 41.988 31.148 43.524C31.796 45.06 32.12 46.752 32.12 48.6C32.12 50.424 31.796 52.116 31.148 53.676C30.524 55.212 29.624 56.544 28.448 57.672C27.272 58.776 25.892 59.64 24.308 60.264C22.724 60.888 20.984 61.2 19.088 61.2H8ZM15.776 56.412L14.444 54.576H18.908C19.7 54.576 20.42 54.432 21.068 54.144C21.716 53.832 22.28 53.412 22.76 52.884C23.24 52.356 23.612 51.732 23.876 51.012C24.14 50.268 24.272 49.464 24.272 48.6C24.272 47.736 24.14 46.944 23.876 46.224C23.612 45.48 23.24 44.844 22.76 44.316C22.28 43.788 21.716 43.38 21.068 43.092C20.42 42.78 19.7 42.624 18.908 42.624H14.336L15.776 40.86V56.412Z" fill="#DBDDFF"/>
</g>
<g id="Pedro">
<path id="Vector_7" d="M96.2598 27.36C94.1718 27.36 92.3118 26.928 90.6798 26.064C89.0478 25.2 87.7638 24.024 86.8278 22.536C85.8918 21.024 85.4238 19.296 85.4238 17.352C85.4238 15.408 85.8918 13.692 86.8278 12.204C87.7638 10.692 89.0478 9.50399 90.6798 8.63999C92.3118 7.77599 94.1718 7.34399 96.2598 7.34399C98.3478 7.34399 100.196 7.77599 101.804 8.63999C103.436 9.50399 104.708 10.692 105.62 12.204C106.556 13.692 107.024 15.408 107.024 17.352C107.024 19.296 106.556 21.024 105.62 22.536C104.708 24.024 103.436 25.2 101.804 26.064C100.196 26.928 98.3478 27.36 96.2598 27.36ZM96.2598 21.24C96.9078 21.24 97.4838 21.072 97.9878 20.736C98.5158 20.4 98.9238 19.944 99.2118 19.368C99.4998 18.768 99.6438 18.096 99.6438 17.352C99.6438 16.584 99.4998 15.912 99.2118 15.336C98.9238 14.736 98.5158 14.268 97.9878 13.932C97.4838 13.596 96.9078 13.428 96.2598 13.428C95.5878 13.428 94.9878 13.596 94.4598 13.932C93.9558 14.268 93.5478 14.736 93.2358 15.336C92.9478 15.912 92.8038 16.584 92.8038 17.352C92.8038 18.096 92.9478 18.768 93.2358 19.368C93.5478 19.944 93.9558 20.4 94.4598 20.736C94.9878 21.072 95.5878 21.24 96.2598 21.24Z" fill="#DBDDFF"/>
<path id="Vector_8" d="M69.9184 27V7.73999H76.6864L77.1184 14.148L75.4984 13.14C75.8104 12.036 76.3024 11.052 76.9744 10.188C77.6464 9.29999 78.4504 8.60399 79.3864 8.09999C80.3464 7.59599 81.3664 7.34399 82.4464 7.34399C82.8784 7.34399 83.2864 7.37999 83.6704 7.45199C84.0544 7.49999 84.4264 7.57199 84.7864 7.66799L82.7704 15.768C82.5304 15.6 82.1464 15.444 81.6184 15.3C81.1144 15.156 80.5624 15.084 79.9624 15.084C79.5304 15.084 79.1344 15.156 78.7744 15.3C78.4384 15.42 78.1504 15.612 77.9104 15.876C77.6944 16.14 77.5264 16.452 77.4064 16.812C77.2864 17.172 77.2264 17.592 77.2264 18.072V27H69.9184Z" fill="#DBDDFF"/>
<path id="Vector_9" d="M52.6044 27.396C51.0204 27.396 49.6044 26.976 48.3564 26.136C47.1324 25.272 46.1604 24.096 45.4404 22.608C44.7444 21.096 44.3964 19.356 44.3964 17.388C44.3964 15.444 44.7564 13.716 45.4764 12.204C46.1964 10.692 47.1804 9.50398 48.4284 8.63998C49.7004 7.77598 51.1524 7.34399 52.7844 7.34399C53.6004 7.34399 54.3804 7.46398 55.1244 7.70398C55.8684 7.91998 56.5404 8.24399 57.1404 8.67599C57.7404 9.08399 58.2444 9.57598 58.6524 10.152C59.0844 10.704 59.3724 11.304 59.5164 11.952L57.8964 12.456V0.359985H65.2404V27H58.6524L58.0764 22.752L59.5524 23.076C59.4324 23.7 59.1684 24.276 58.7604 24.804C58.3524 25.332 57.8364 25.788 57.2124 26.172C56.6124 26.556 55.9164 26.856 55.1244 27.072C54.3324 27.288 53.4924 27.396 52.6044 27.396ZM54.8004 21.456C55.4964 21.456 56.0844 21.3 56.5644 20.988C57.0684 20.652 57.4404 20.184 57.6804 19.584C57.9444 18.984 58.0764 18.252 58.0764 17.388C58.0764 16.524 57.9444 15.792 57.6804 15.192C57.4404 14.568 57.0684 14.1 56.5644 13.788C56.0844 13.476 55.4964 13.32 54.8004 13.32C54.1044 13.32 53.5164 13.476 53.0364 13.788C52.5564 14.1 52.1844 14.568 51.9204 15.192C51.6804 15.792 51.5604 16.524 51.5604 17.388C51.5604 18.252 51.6804 18.984 51.9204 19.584C52.1844 20.184 52.5564 20.652 53.0364 20.988C53.5164 21.3 54.1044 21.456 54.8004 21.456Z" fill="#DBDDFF"/>
<path id="Vector_10" d="M34.0667 27.36C31.8347 27.36 29.9147 26.928 28.3067 26.064C26.6987 25.2 25.4627 24.024 24.5987 22.536C23.7347 21.024 23.3027 19.296 23.3027 17.352C23.3027 15.912 23.5427 14.58 24.0227 13.356C24.5027 12.132 25.1747 11.076 26.0387 10.188C26.9267 9.27599 27.9587 8.57999 29.1347 8.09999C30.3347 7.59599 31.6427 7.34399 33.0587 7.34399C34.4747 7.34399 35.7587 7.59599 36.9107 8.09999C38.0867 8.57999 39.0947 9.27599 39.9347 10.188C40.7747 11.076 41.4107 12.132 41.8427 13.356C42.2987 14.58 42.5027 15.912 42.4547 17.352L42.4187 18.864H27.3347L26.5067 15.444H36.6227L35.9387 16.164V15.516C35.9387 15.06 35.8187 14.664 35.5787 14.328C35.3627 13.968 35.0507 13.692 34.6427 13.5C34.2347 13.308 33.7547 13.212 33.2027 13.212C32.5067 13.212 31.9187 13.356 31.4387 13.644C30.9587 13.932 30.5867 14.34 30.3227 14.868C30.0827 15.396 29.9627 16.032 29.9627 16.776C29.9627 17.64 30.1427 18.396 30.5027 19.044C30.8867 19.692 31.4387 20.196 32.1587 20.556C32.9027 20.916 33.8147 21.096 34.8947 21.096C35.6147 21.096 36.2267 21.012 36.7307 20.844C37.2587 20.652 37.8107 20.352 38.3867 19.944L41.7347 24.66C40.8467 25.356 39.9707 25.896 39.1067 26.28C38.2667 26.664 37.4267 26.94 36.5867 27.108C35.7707 27.276 34.9307 27.36 34.0667 27.36Z" fill="#DBDDFF"/>
<path id="ponto-final" d="M0.880005 27V1.79999H12.22C13.948 1.79999 15.484 2.17199 16.828 2.91599C18.172 3.65999 19.228 4.67999 19.996 5.97599C20.764 7.27199 21.148 8.75999 21.148 10.44C21.148 12.192 20.764 13.752 19.996 15.12C19.228 16.488 18.172 17.568 16.828 18.36C15.484 19.128 13.948 19.512 12.22 19.512H8.656V27H0.880005ZM8.51201 12.888H10.78C11.236 12.888 11.644 12.804 12.004 12.636C12.364 12.444 12.64 12.18 12.832 11.844C13.048 11.508 13.156 11.088 13.156 10.584C13.156 10.08 13.048 9.67199 12.832 9.35999C12.64 9.04799 12.364 8.81999 12.004 8.67599C11.644 8.50799 11.236 8.42399 10.78 8.42399H8.51201V12.888Z" fill="#DBDDFF"/>
</g>
</g>
</svg>
