<svg width="181.43" height="264" viewBox="0 0 352 264" fill="none" xmlns="http://www.w3.org/2000/svg">
<path fill-rule="evenodd" clip-rule="evenodd" d="M51.1383 22.1317C51.1383 21.7644 51.4141 20.4401 52.5296 18.5088C53.5867 16.6789 55.2596 14.5526 57.6656 12.5794C62.4241 8.67673 70.1809 5.26714 82.0232 6.13645C128.532 9.55052 154.975 41.6136 154.975 66.1011V209.002C154.975 211.353 154.433 212.578 153.805 213.232C153.199 213.863 151.999 214.496 149.449 214.496H121.864C119.313 214.496 118.114 213.863 117.508 213.232C116.88 212.578 116.338 211.353 116.338 209.002V77.0934C116.338 68.6664 112.191 60.2045 106.033 53.9017C99.8624 47.5872 91.3548 43.115 82.2428 43.115H51.1383V22.1317ZM82.2428 49.115H51.1383V209.002C51.1382 212.506 50.4869 215.683 48.1994 217.858C45.9469 220 42.8026 220.496 39.6121 220.496H11.526C8.7035 220.496 5.70705 219.947 3.41092 217.946C1.0323 215.872 0 212.773 0 209.002V75.5952C-2.09808e-05 69.1278 3.71306 61.0818 9.27033 54.7534C14.8673 48.3798 22.8933 43.115 32.0861 43.115H45.1383V22.1317C45.1383 20.2505 45.9831 17.8466 47.3341 15.5077C48.7436 13.0677 50.883 10.3822 53.8607 7.94007C59.8696 3.01196 69.1651 -0.82357 82.4625 0.152553C131.246 3.73359 160.975 37.6754 160.975 66.1011V209.002C160.975 212.146 160.263 215.169 158.133 217.387C155.98 219.629 152.916 220.496 149.449 220.496H121.864C118.396 220.496 115.333 219.629 113.18 217.387C111.05 215.169 110.338 212.146 110.338 209.002V77.0934C110.338 70.5715 107.066 63.5442 101.741 58.095C96.428 52.6576 89.3879 49.115 82.2428 49.115ZM32.0861 49.115H45.1383V209.002C45.1383 211.992 44.5357 213.063 44.0647 213.51C43.5587 213.992 42.44 214.496 39.6121 214.496H11.526C9.33314 214.496 8.06659 214.045 7.35356 213.423C6.72302 212.873 6 211.725 6 209.002V75.5952C5.99998 71.0702 8.80531 64.3761 13.7788 58.7125C18.7125 53.0941 25.2295 49.115 32.0861 49.115ZM300.336 241.008C300.336 241.376 300.061 242.7 298.945 244.631C297.888 246.461 296.215 248.588 293.809 250.561C289.051 254.463 281.294 257.873 269.452 257.004C222.943 253.59 196.5 221.527 196.5 197.039V54.1386C196.5 51.787 197.042 50.5626 197.67 49.9082C198.276 49.2772 199.475 48.6445 202.026 48.6445H229.611C232.161 48.6445 233.361 49.2772 233.966 49.9082C234.595 50.5625 235.137 51.787 235.137 54.1386V186.047C235.137 194.474 239.283 202.936 245.442 209.238C251.612 215.553 260.12 220.025 269.232 220.025H300.336V241.008ZM269.232 214.025H300.336V54.1386C300.336 50.6339 300.988 47.457 303.275 45.2817C305.528 43.1397 308.672 42.6445 311.863 42.6445H339.949C342.771 42.6445 345.768 43.1927 348.064 45.1943C350.442 47.2678 351.475 50.3669 351.475 54.1386V187.545C351.475 194.012 347.762 202.058 342.204 208.387C336.607 214.76 328.581 220.025 319.389 220.025H306.336V241.008C306.336 242.89 305.492 245.294 304.141 247.632C302.731 250.073 300.592 252.758 297.614 255.2C291.605 260.128 282.31 263.964 269.012 262.988C220.229 259.407 190.5 225.465 190.5 197.039V54.1386C190.5 50.9939 191.212 47.9713 193.342 45.7527C195.495 43.5107 198.558 42.6445 202.026 42.6445H229.611C233.078 42.6445 236.142 43.5107 238.295 45.7527C240.425 47.9714 241.137 50.994 241.137 54.1386V186.047C241.137 192.569 244.409 199.596 249.734 205.045C255.047 210.483 262.087 214.025 269.232 214.025ZM319.389 214.025H306.336V54.1386C306.336 51.1477 306.939 50.0776 307.41 49.6297C307.916 49.1485 309.035 48.6445 311.863 48.6445H339.949C342.142 48.6445 343.408 49.0955 344.121 49.7171C344.752 50.2668 345.475 51.4148 345.475 54.1386V187.545C345.475 192.07 342.669 198.764 337.696 204.428C332.762 210.046 326.245 214.025 319.389 214.025Z" fill="url(#paint0_linear_25_0)"/>
<defs>
<linearGradient id="paint0_linear_25_0" x1="299.066" y1="33.3339" x2="136.011" y2="282.969" gradientUnits="userSpaceOnUse">
<stop stop-color="#A950C4"/>
<stop offset="1" stop-color="#82269E"/>
</linearGradient>
</defs>
</svg>
